<svg width="15" height="18" viewBox="0 0 15 18" fill="none" xmlns="http://www.w3.org/2000/svg">
<path d="M15 4.2C15 3.20742 14.1589 2.4 13.125 2.4H10.5525C10.2609 1.03362 9.00794 0 7.5 0C5.991 0 4.72856 1.03242 4.43819 2.4H1.875C0.841063 2.4 0 3.20742 0 4.2C0 4.99224 0.539312 5.65878 1.28131 5.89878L1.95312 16.2C1.95312 17.1926 2.86437 18 3.98438 18H11.0156C12.1356 18 13.0469 17.1926 13.0456 16.2375L13.7188 5.89878C14.4607 5.65884 15 4.99218 15 4.2ZM7.5 1.2C8.31481 1.2 9.01 1.70154 9.26787 2.4H5.73213C5.99 1.70154 6.68519 1.2 7.5 1.2ZM11.7969 16.2C11.7969 16.5311 11.4466 16.8 11.0156 16.8H3.98438C3.55344 16.8 3.20313 16.5311 3.20188 16.1625L2.54031 6H12.4598L11.7969 16.2ZM13.125 4.8H1.875C1.53044 4.8 1.25 4.53108 1.25 4.2C1.25 3.86892 1.53044 3.6 1.875 3.6H5H10H10.0125H13.125C13.4696 3.6 13.75 3.86892 13.75 4.2C13.75 4.53108 13.4696 4.8 13.125 4.8Z" fill="#C4C4C4"/>
<path d="M7.50098 15.6002C7.8461 15.6002 8.12598 15.3318 8.12598 15.0002V7.8002C8.12598 7.46858 7.8461 7.2002 7.50098 7.2002C7.15585 7.2002 6.87598 7.46858 6.87598 7.8002V15.0002C6.87598 15.3318 7.15585 15.6002 7.50098 15.6002Z" fill="#C4C4C4"/>
<path d="M10 15.6002C10.3451 15.6002 10.625 15.3318 10.625 15.0002V7.8002C10.625 7.46858 10.3451 7.2002 10 7.2002C9.65487 7.2002 9.375 7.46858 9.375 7.8002V15.0002C9.375 15.3318 9.65487 15.6002 10 15.6002Z" fill="#C4C4C4"/>
<path d="M4.99902 15.6002C5.34415 15.6002 5.62402 15.3318 5.62402 15.0002V7.8002C5.62402 7.46858 5.34415 7.2002 4.99902 7.2002C4.6539 7.2002 4.37402 7.46858 4.37402 7.8002V15.0002C4.37402 15.3318 4.6539 15.6002 4.99902 15.6002Z" fill="#C4C4C4"/>
</svg>
