<svg width="21" height="21" viewBox="0 0 21 21" fill="none" xmlns="http://www.w3.org/2000/svg">
<path fill-rule="evenodd" clip-rule="evenodd" d="M10.5 20C15.7467 20 20 15.7467 20 10.5C20 5.25329 15.7467 1 10.5 1C5.25329 1 1 5.25329 1 10.5C1 15.7467 5.25329 20 10.5 20ZM10.5 21C16.299 21 21 16.299 21 10.5C21 4.70101 16.299 0 10.5 0C4.70101 0 0 4.70101 0 10.5C0 16.299 4.70101 21 10.5 21Z" fill="#DA4C1F"/>
<path d="M11.2873 5.01001H9.71932V6.92801L9.87332 12.948H11.1333L11.2873 6.92801V5.01001ZM11.3013 14.348H9.70532V15.986H11.3013V14.348Z" fill="#DA4C1F"/>
</svg>
